<?xml version="1.0" standalone="no"?>
<svg xmlns:xlink="http://www.w3.org/1999/xlink" id="wave" style="transform:rotate(0deg); transition: 0.3s" viewBox="0 0 1440 490" version="1.1" xmlns="http://www.w3.org/2000/svg"><defs><linearGradient id="sw-gradient-0" x1="0" x2="0" y1="1" y2="0"><stop stop-color="rgba(62, 176.16, 243, 1)" offset="0%"/><stop stop-color="rgba(11, 32.631, 255, 1)" offset="100%"/></linearGradient></defs><path style="transform:translate(0, 0px); opacity:1" fill="url(#sw-gradient-0)" d="M0,392L40,375.7C80,359,160,327,240,269.5C320,212,400,131,480,114.3C560,98,640,147,720,204.2C800,261,880,327,960,302.2C1040,278,1120,163,1200,163.3C1280,163,1360,278,1440,318.5C1520,359,1600,327,1680,302.2C1760,278,1840,261,1920,261.3C2000,261,2080,278,2160,236.8C2240,196,2320,98,2400,65.3C2480,33,2560,65,2640,98C2720,131,2800,163,2880,147C2960,131,3040,65,3120,32.7C3200,0,3280,0,3360,8.2C3440,16,3520,33,3600,32.7C3680,33,3760,16,3840,32.7C3920,49,4000,98,4080,98C4160,98,4240,49,4320,40.8C4400,33,4480,65,4560,130.7C4640,196,4720,294,4800,318.5C4880,343,4960,294,5040,294C5120,294,5200,343,5280,318.5C5360,294,5440,196,5520,204.2C5600,212,5680,327,5720,383.8L5760,441L5760,490L5720,490C5680,490,5600,490,5520,490C5440,490,5360,490,5280,490C5200,490,5120,490,5040,490C4960,490,4880,490,4800,490C4720,490,4640,490,4560,490C4480,490,4400,490,4320,490C4240,490,4160,490,4080,490C4000,490,3920,490,3840,490C3760,490,3680,490,3600,490C3520,490,3440,490,3360,490C3280,490,3200,490,3120,490C3040,490,2960,490,2880,490C2800,490,2720,490,2640,490C2560,490,2480,490,2400,490C2320,490,2240,490,2160,490C2080,490,2000,490,1920,490C1840,490,1760,490,1680,490C1600,490,1520,490,1440,490C1360,490,1280,490,1200,490C1120,490,1040,490,960,490C880,490,800,490,720,490C640,490,560,490,480,490C400,490,320,490,240,490C160,490,80,490,40,490L0,490Z"/></svg>